<svg width="32" height="32" viewBox="0 0 32 32" fill="none" xmlns="http://www.w3.org/2000/svg">
<path fill-rule="evenodd" clip-rule="evenodd" d="M16 12C16.5523 12 17 12.4477 17 13V18C17 18.5523 16.5523 19 16 19C15.4477 19 15 18.5523 15 18V13C15 12.4477 15.4477 12 16 12Z" fill="#A62828"/>
<path fill-rule="evenodd" clip-rule="evenodd" d="M14.5013 3.4028C14.9567 3.13875 15.4737 2.99969 16 2.99969C16.5264 2.99969 17.0434 3.13875 17.4987 3.4028C17.9532 3.66639 18.3302 4.0452 18.5916 4.501C18.592 4.50177 18.5925 4.50254 18.5929 4.50332L29.591 23.5C29.8539 23.9553 29.9925 24.4717 29.993 24.9974C29.9934 25.5231 29.8557 26.0397 29.5937 26.4954C29.3316 26.9512 28.9544 27.3301 28.4998 27.5941C28.0452 27.8582 27.5292 27.9982 27.0035 28L27 28H5.00001L4.99648 28C4.47077 27.9982 3.95477 27.8582 3.50019 27.5941C3.0456 27.3301 2.66838 26.9512 2.40633 26.4954C2.14428 26.0397 2.00658 25.5231 2.00705 24.9974C2.00752 24.4717 2.14612 23.9553 2.40898 23.5L13.4071 4.50332C13.4075 4.50254 13.408 4.50177 13.4084 4.501C13.6698 4.0452 14.0468 3.66639 14.5013 3.4028ZM14.275 5.00001L15.1404 5.50105L4.14103 24.5C4.14095 24.5001 4.1411 24.4999 4.14103 24.5C4.05355 24.6517 4.00721 24.824 4.00705 24.9991C4.00689 25.1744 4.05279 25.3466 4.14014 25.4985C4.2275 25.6504 4.35323 25.7767 4.50476 25.8647C4.6559 25.9525 4.8274 25.9992 5.00216 26H26.9978C27.1726 25.9992 27.3441 25.9525 27.4953 25.8647C27.6468 25.7767 27.7725 25.6504 27.8599 25.4985C27.9472 25.3466 27.9931 25.1744 27.993 24.9991C27.9928 24.8241 27.9467 24.6522 27.8593 24.5006C27.8592 24.5004 27.8594 24.5008 27.8593 24.5006L16.8571 5.49671C16.7707 5.34571 16.6459 5.22021 16.4954 5.13294C16.3449 5.04566 16.174 4.99969 16 4.99969C15.826 4.99969 15.6551 5.04566 15.5046 5.13294C15.3541 5.22022 15.2293 5.34571 15.1429 5.49671L14.275 5.00001Z" fill="#A62828"/>
<path d="M16 24C16.8284 24 17.5 23.3284 17.5 22.5C17.5 21.6716 16.8284 21 16 21C15.1716 21 14.5 21.6716 14.5 22.5C14.5 23.3284 15.1716 24 16 24Z" fill="#A62828"/>
</svg>
